Coordinates
version=1
nRows=8
nColumns=33
inDegrees=yes

Units are S.I. units (second, meters, Newtons, ...)
Angles are in degrees.

endheader
time	ground_thorax_rot_x	ground_thorax_rot_y	ground_thorax_rot_z	ground_thorax_tx	ground_thorax_ty	ground_thorax_tz	clav_prot_r	clav_elev_r	scapula_abduction_r	scapula_elevation_r	scapula_upward_rot_r	scapula_winging_r	shoulder_elv_r	plane_of_elev_r	axial_rot_r	elbow_flexion_r	pro_sup_r	wrist_flex_r	wrist_dev_r	clav_prot_l	clav_elev_l	scapula_abduction_l	scapula_elevation_l	scapula_upward_rot_l	scapula_winging_l	shoulder_elv_l	plane_of_elev_l	axial_rot_l	elbow_flexion_l	pro_sup_l	wrist_flex_l	wrist_dev_l
      3.48000000	     40.14282692	     14.87036266	     15.08849508	   -167.30498795	    811.30741308	      3.84809608	     13.89171793	     42.38209325	     41.70762962	     45.00000000	    -23.17657391	  -1890.35772729	  -4796.35354349	    147.49119740	   -132.62316151	   2532.15276578	     23.07804492	     19.26579020	      8.22491524	      5.81818559	    -45.00000000	    -37.15618812	     45.00000000	    -38.54685049	   1532.32452157	  -3335.02322763	    137.34248259	    159.71793416	   1450.57892803	     12.82804827	      7.14655448	    -19.90925816
      3.49000000	     40.13836194	     14.79732471	     15.06896550	   -169.37135385	    812.44332149	      4.00665005	     13.87886643	     42.30478498	     41.61419182	     45.00000000	    -23.40710068	  -1890.38733751	  -4796.13419806	    147.42541756	   -132.77211159	   2532.17058036	     22.69879142	     19.28694104	      8.19283029	      5.89129683	    -45.00000000	    -37.14492266	     45.00000000	    -38.63928648	   1532.52198757	  -3334.90440607	    137.35465960	    159.58317245	   1450.64219015	     12.24686106	      7.17032893	    -19.92443593
      3.50000000	     40.14289196	     14.62345061	     14.98521315	   -171.39042662	    813.56359595	      4.17193594	     13.77880020	     42.18511158	     41.62296325	     45.00000000	    -23.42801769	  -1890.48104806	  -4796.01206922	    147.42870898	   -132.91000413	   2532.15767477	     22.35670507	     19.31932135	      8.20116949	      5.86811222	    -45.00000000	    -37.12157358	     45.00000000	    -38.53477702	   1532.71350052	  -3334.82814439	    137.37585412	    159.52472910	   1450.61545488	     11.70051691	      7.15533644	    -19.92756718
      3.51000000	     40.11259041	     14.61536538	     15.06794802	   -173.36640239	    814.66199784	      4.33916699	     13.81640388	     42.11803934	     41.46675019	     45.00000000	    -23.82789373	  -1890.44562892	  -4795.73744200	    147.31388545	   -133.06983186	   2532.21624925	     21.95401545	     19.33440194	      8.16146314	      5.99136021	    -45.00000000	    -37.12813863	     45.00000000	    -38.77195783	   1532.91085616	  -3334.69206904	    137.43437076	    159.33754242	   1450.71101384	     11.09974649	      7.19638368	    -19.93893173
      3.52000000	     40.20989383	     14.24664795	     14.83263202	   -175.30521815	    815.74451479	      4.50655521	     13.59753799	     41.77503576	     41.65114100	     45.00000000	    -23.57306753	  -1890.63948114	  -4795.74546380	    147.40815815	   -133.29856975	   2531.99885714	     21.66910541	     19.33725189	      8.17316549	      5.91338463	    -45.00000000	    -36.99308452	     45.00000000	    -38.60516265	   1533.15090104	  -3334.66688775	    137.16952179	    159.23668230	   1450.59993227	     10.61172330	      7.15847761	    -19.93763291
      3.53000000	     40.25195443	     13.82319171	     14.27752345	   -177.19546031	    816.80658442	      4.66998501	     13.56489361	     41.85230726	     41.46463211	     45.00000000	    -23.50535110	  -1890.60312173	  -4795.56757191	    147.12817058	   -133.36852187	   2532.07931643	     21.38756505	     19.33755603	      8.05339379	      5.90202225	    -45.00000000	    -37.29248052	     45.00000000	    -37.82498419	   1533.43911454	  -3334.65807266	    137.32548104	    158.63338999	   1450.67674364	     10.27530348	      7.35338018	    -19.98230739
      3.54000000	     40.13592361	     14.13913452	     14.80726590	   -179.05247621	    817.85936716	      4.82718831	     13.52515663	     41.80304248	     41.41018050	     45.00000000	    -23.89181297	  -1890.65713931	  -4795.39279452	    147.30448470	   -133.30992147	   2532.07452776	     21.13821755	     19.37667527	      8.16213619	      5.99183285	    -45.00000000	    -36.96939809	     45.00000000	    -38.65095321	   1533.56795638	  -3334.48177055	    137.37095156	    158.48445731	   1450.67698442	      9.75879034	      7.11500639	    -19.94547765
      3.55000000	     40.13814189	     13.90967713	     14.61385037	   -180.88279608	    818.90797988	      4.97462507	     13.45922387	     41.58046824	     41.33526055	     45.00000000	    -24.13933682	  -1890.69643136	  -4795.24355480	    147.13366074	   -133.49069559	   2532.04026983	     20.83877625	     19.34537807	      7.97639874	      6.01386016	    -45.00000000	    -36.99826396	     45.00000000	    -38.72365446	   1533.75628898	  -3334.33287408	    137.23213402	    158.55284398	   1450.66800187	      9.26929086	      7.20624958	    -19.94624414
